<svg width="40" height="40" viewBox="0 0 40 40" fill="none" xmlns="http://www.w3.org/2000/svg">
<path d="M20.9533 0.5148C21.0088 0.527528 21.0088 0.527528 21.0654 0.540512C21.6704 0.69465 22.2144 0.976931 22.7462 1.29694C22.8667 1.36834 22.9872 1.43969 23.1078 1.51101C23.2002 1.56591 23.2002 1.56591 23.2945 1.62192C23.6008 1.80293 23.9092 1.98025 24.2176 2.15766C24.3425 2.2296 24.4673 2.30155 24.5922 2.37351C24.6542 2.40922 24.7162 2.44494 24.78 2.48174C25.1521 2.6961 25.524 2.91077 25.8959 3.12538C26.2068 3.30476 26.5177 3.48408 26.8288 3.66324C27.4849 4.04131 28.1401 4.42088 28.794 4.80298C29.2129 5.04765 29.6329 5.2905 30.0533 5.53266C30.5869 5.84004 31.1194 6.14938 31.6511 6.46011C32.07 6.70478 32.49 6.94761 32.9105 7.1898C33.0962 7.29693 33.2819 7.40408 33.4677 7.51126C33.5921 7.58308 33.7167 7.65486 33.8412 7.7266C35.6512 8.77013 35.6512 8.77013 36.2819 9.3898C36.3176 9.42479 36.3533 9.45978 36.3901 9.49583C37.1822 10.3344 37.5575 11.5081 37.5543 12.6409C37.5546 12.7078 37.5548 12.7748 37.5551 12.8437C37.5557 13.0282 37.5558 13.2127 37.5556 13.3972C37.5556 13.5967 37.5562 13.7962 37.5568 13.9956C37.5577 14.3861 37.5581 14.7765 37.5581 15.167C37.5582 15.4847 37.5584 15.8024 37.5588 16.1202C37.5598 17.0226 37.5603 17.9251 37.5602 18.8275C37.5602 18.9004 37.5602 18.9004 37.5602 18.9748C37.5602 19.0234 37.5602 19.0721 37.5602 19.1222C37.5601 19.9097 37.5612 20.6971 37.5628 21.4846C37.5645 22.2947 37.5653 23.1049 37.5652 23.915C37.5651 24.3692 37.5654 24.8234 37.5667 25.2775C37.5677 25.6645 37.568 26.0514 37.5672 26.4383C37.5668 26.6353 37.5668 26.8323 37.5678 27.0293C37.5763 29.0673 37.5763 29.0673 37.0926 29.9362C37.0727 29.9737 37.0529 30.0111 37.0324 30.0497C36.8684 30.3509 36.6849 30.6216 36.4533 30.8755C36.4096 30.9252 36.3658 30.9748 36.3207 31.026C35.9036 31.4729 35.4375 31.7716 34.9105 32.0755C34.8556 32.1073 34.8008 32.1392 34.7444 32.172C34.4306 32.3541 34.1162 32.5352 33.8015 32.7157C33.4625 32.9104 33.1253 33.1082 32.789 33.3077C32.3059 33.5941 31.8214 33.8781 31.3361 34.1607C31.0215 34.3439 30.7072 34.5276 30.3933 34.7119C30.3419 34.742 30.3419 34.742 30.2896 34.7728C30.2551 34.793 30.2206 34.8133 30.1851 34.8341C29.5818 35.1884 28.9776 35.5409 28.3712 35.8898C27.8667 36.18 27.3643 36.4735 26.8637 36.7703C26.3101 37.0984 25.7541 37.4222 25.198 37.746C24.9686 37.8796 24.7393 38.0134 24.51 38.1472C24.3966 38.2134 24.2832 38.2795 24.1698 38.3455C23.8715 38.5193 23.5737 38.6937 23.2763 38.869C23.2145 38.9054 23.1526 38.9417 23.0889 38.9792C22.9708 39.0487 22.8528 39.1183 22.7349 39.1881C22.2025 39.5007 21.7152 39.7477 21.0819 39.6755C20.6786 39.5638 20.3073 39.3947 20.0855 39.024C19.9299 38.7231 19.8181 38.4628 19.8167 38.1214C19.8164 38.074 19.8161 38.0266 19.8157 37.9778C19.8157 37.9262 19.8156 37.8747 19.8155 37.8216C19.8152 37.7669 19.815 37.7123 19.8147 37.656C19.8138 37.475 19.8134 37.294 19.8131 37.113C19.8128 36.9869 19.8125 36.8607 19.8121 36.7346C19.8115 36.4698 19.8112 36.205 19.811 35.9402C19.8107 35.6024 19.8093 35.2645 19.8077 34.9266C19.8066 34.6658 19.8063 34.405 19.8063 34.1441C19.8061 34.0197 19.8056 33.8952 19.8049 33.7707C19.7989 32.7036 19.8537 31.9379 20.6245 31.1477C20.812 30.9586 21.0022 30.7724 21.1926 30.5862C21.3086 30.4723 21.4245 30.3581 21.5402 30.2439C21.6117 30.1733 21.6835 30.1028 21.7554 30.0326C21.9265 29.8645 22.0893 29.6933 22.2453 29.511C22.4754 29.2445 22.7286 29.0055 22.9839 28.7635C23.0848 28.6661 23.1855 28.5686 23.2862 28.4711C23.4434 28.3188 23.601 28.1672 23.7603 28.0171C23.915 27.871 24.0674 27.7229 24.2196 27.5742C24.2917 27.5076 24.2917 27.5076 24.3653 27.4397C24.6087 27.2077 24.6087 27.2077 24.6867 26.8951C24.6583 26.7483 24.6186 26.6158 24.5676 26.4755C24.3928 25.8301 24.4608 25.0766 24.739 24.4755C24.7619 24.423 24.7848 24.3705 24.8084 24.3164C25.1609 23.59 25.7961 23.0373 26.5569 22.7719C27.4517 22.4949 28.3786 22.5926 29.2033 23.0266C29.9862 23.4979 30.447 24.1656 30.6819 25.0469C30.8908 25.9447 30.642 26.7978 30.1676 27.5612C29.6756 28.2498 29.0112 28.597 28.2029 28.7945C27.6227 28.8871 27.0965 28.8406 26.5488 28.6342C26.3822 28.5857 26.3274 28.5902 26.1676 28.6469C26.0749 28.7144 26.0749 28.7144 25.9908 28.8027C25.9407 28.8524 25.9407 28.8524 25.8896 28.903C25.8536 28.9395 25.8177 28.976 25.7806 29.0136C25.723 29.071 25.723 29.071 25.6643 29.1296C25.5373 29.2563 25.4111 29.3836 25.2848 29.511C25.1969 29.5991 25.1089 29.6871 25.021 29.7751C24.8367 29.9597 24.6527 30.1445 24.4689 30.3295C24.233 30.5671 23.9965 30.8042 23.7598 31.0411C23.5783 31.2229 23.3969 31.4049 23.2156 31.5869C23.1284 31.6744 23.0412 31.7618 22.954 31.8493C22.8324 31.9713 22.7109 32.0935 22.5895 32.2158C22.5532 32.2522 22.5169 32.2885 22.4795 32.326C22.2244 32.5836 22.1609 32.6836 22.1559 33.0423C22.1547 33.1132 22.1536 33.1841 22.1524 33.2572C22.1514 33.3349 22.1505 33.4126 22.1495 33.4902C22.1483 33.5695 22.1471 33.6488 22.1459 33.7281C22.1428 33.9368 22.1399 34.1455 22.1372 34.3543C22.1343 34.5672 22.1311 34.7802 22.128 34.9932C22.1218 35.4111 22.116 35.829 22.1105 36.2469C23.2544 35.5773 23.2544 35.5773 24.3962 34.9041C24.9169 34.5959 25.4388 34.2897 25.961 33.9839C26.4114 33.7201 26.8613 33.4557 27.3105 33.1898C27.9638 32.8032 28.6188 32.4194 29.2739 32.0357C29.5233 31.8896 29.7727 31.7434 30.0221 31.5972C31.2077 30.9017 31.2077 30.9017 31.7931 30.5609C31.9058 30.4952 32.0185 30.4293 32.1311 30.3634C32.4106 30.1997 32.6909 30.0378 32.9732 29.8789C33.0298 29.8465 33.0865 29.8142 33.1448 29.7808C33.251 29.7202 33.3575 29.6603 33.4646 29.6012C33.9468 29.3236 34.3348 28.9555 34.5105 28.4184C34.555 28.227 34.5748 28.0501 34.5753 27.8538C34.5755 27.7989 34.5758 27.744 34.576 27.6874C34.576 27.6275 34.576 27.5677 34.576 27.506C34.5763 27.41 34.5763 27.41 34.5766 27.3121C34.5773 27.0973 34.5775 26.8825 34.5777 26.6677C34.5781 26.5138 34.5784 26.36 34.5789 26.2062C34.58 25.7442 34.5806 25.2823 34.5811 24.8203C34.5813 24.6026 34.5816 24.3849 34.5819 24.1672C34.5829 23.4431 34.5837 22.7191 34.5841 21.9951C34.5842 21.8073 34.5844 21.6195 34.5845 21.4318C34.5845 21.3851 34.5845 21.3384 34.5845 21.2903C34.585 20.5346 34.5865 19.7788 34.5883 19.023C34.5902 18.2465 34.5912 17.47 34.5914 16.6936C34.5916 16.2578 34.592 15.8221 34.5935 15.3863C34.5948 15.0152 34.5952 14.644 34.5947 14.2729C34.5944 14.0837 34.5946 13.8945 34.5956 13.7054C34.5966 13.4998 34.5962 13.2942 34.5955 13.0886C34.5961 13.0295 34.5967 12.9704 34.5974 12.9095C34.592 12.295 34.4126 11.7963 33.9823 11.3543C33.7137 11.1226 33.417 10.954 33.1083 10.7827C32.8844 10.6576 32.6629 10.5287 32.4409 10.4003C32.2475 10.2885 32.0539 10.1771 31.8602 10.0657C31.5232 9.87131 31.1879 9.67414 30.8533 9.47551C30.3379 9.16965 29.8194 8.86926 29.3 8.57028C28.5977 8.16596 27.8981 7.75703 27.1985 7.34812C26.3043 6.82555 25.408 6.30673 24.5105 5.7898C23.7714 5.36411 23.0326 4.93787 22.2962 4.50766C22.1309 4.41126 21.9656 4.31488 21.8004 4.21851C21.7075 4.16428 21.6146 4.10996 21.5219 4.05551C21.4111 3.99047 21.3001 3.9258 21.189 3.86123C21.1311 3.82735 21.0732 3.79346 21.0136 3.75855C20.6926 3.59226 20.4054 3.53918 20.0462 3.53623C20.0071 3.53435 19.9681 3.53247 19.9279 3.53054C19.2799 3.52399 18.6994 3.92049 18.1605 4.2398C18.0628 4.29691 17.9651 4.35403 17.8674 4.4111C17.7669 4.46985 17.6666 4.52878 17.5662 4.58774C17.2535 4.77124 16.939 4.95176 16.6247 5.13266C16.5011 5.204 16.3774 5.27535 16.2538 5.34672C16.0047 5.49041 15.7556 5.634 15.5064 5.77752C14.9092 6.12166 14.3126 6.46675 13.7176 6.8148C13.1878 7.12463 12.6556 7.42999 12.1224 7.73381C11.6598 7.99751 11.1986 8.26356 10.739 8.53266C10.2456 8.82159 9.7501 9.10671 9.25331 9.3898C8.63119 9.74437 8.01104 10.1021 7.39371 10.465C7.19604 10.581 6.99736 10.6946 6.79684 10.8056C6.12982 11.1778 5.64905 11.5386 5.42474 12.3041C5.38143 12.4941 5.36039 12.6696 5.36009 12.8643C5.35976 12.9453 5.35976 12.9453 5.35942 13.0278C5.35947 13.0866 5.35952 13.1454 5.35957 13.206C5.3594 13.2689 5.35923 13.3317 5.35906 13.3965C5.35856 13.6075 5.35848 13.8185 5.35839 14.0295C5.35813 14.1806 5.35784 14.3317 5.35753 14.4828C5.35676 14.8937 5.35641 15.3046 5.35616 15.7154C5.356 15.9721 5.35576 16.2288 5.3555 16.4855C5.3548 17.1965 5.35422 17.9075 5.35402 18.6186C5.35401 18.6641 5.354 18.7095 5.35399 18.7564C5.35397 18.802 5.35396 18.8476 5.35395 18.8946C5.35392 18.987 5.3539 19.0794 5.35387 19.1718C5.35385 19.2405 5.35385 19.2405 5.35383 19.3106C5.35361 20.053 5.35261 20.7953 5.35128 21.5376C5.34992 22.3002 5.34921 23.0628 5.34914 23.8254C5.34909 24.2534 5.34877 24.6814 5.34773 25.1094C5.34685 25.4739 5.34656 25.8384 5.34703 26.2029C5.34725 26.3887 5.34711 26.5745 5.34639 26.7603C5.34567 26.9622 5.346 27.164 5.3466 27.3658C5.34614 27.424 5.34568 27.4822 5.3452 27.5421C5.34844 28.0128 5.4262 28.4707 5.69974 28.8648C5.72604 28.9041 5.75234 28.9433 5.77943 28.9838C6.07475 29.3306 6.45541 29.5346 6.84617 29.7577C6.97021 29.8292 7.09424 29.9008 7.21827 29.9724C7.28135 30.0087 7.34443 30.0449 7.40942 30.0823C7.69498 30.2467 7.9795 30.4129 8.26403 30.5791C8.34765 30.6279 8.34765 30.6279 8.43297 30.6776C8.92319 30.9636 9.41277 31.2506 9.9023 31.5378C10.5996 31.9467 11.2977 32.3542 11.9962 32.7612C12.7174 33.1815 13.4385 33.6023 14.1589 34.0241C14.2333 34.0676 14.3077 34.1111 14.3821 34.1547C14.486 34.2154 14.5899 34.2763 14.6937 34.3371C14.7535 34.3721 14.8133 34.4071 14.8749 34.4432C14.9838 34.5082 15.0907 34.5766 15.1962 34.6469C15.3193 33.5995 15.4008 32.5505 15.4462 31.4969C15.4479 31.4582 15.4496 31.4195 15.4513 31.3796C15.5308 29.5168 15.5012 27.8375 14.1916 26.3734C13.8861 26.0454 13.5615 25.7424 13.2247 25.4469C13.1778 25.4057 13.1309 25.3646 13.0826 25.3221C12.5736 24.8795 12.0487 24.4622 11.5004 24.0694C11.2617 23.898 11.0387 23.7185 10.827 23.5139C10.6678 23.3927 10.5162 23.4153 10.3247 23.4327C9.60815 23.4654 9.05354 23.2831 8.49773 22.8289C8.07073 22.4338 7.80047 21.9081 7.75309 21.3257C7.7322 20.7106 7.83748 20.151 8.23903 19.6681C8.62145 19.2593 9.06871 18.8389 9.65829 18.8096C10.4733 18.7597 10.9629 18.1196 11.5009 17.5696C11.6467 17.4213 11.7942 17.2747 11.9414 17.1279C12.1879 16.8816 12.433 16.634 12.6773 16.3855C12.9596 16.0984 13.2438 15.8134 13.5292 15.5294C13.8045 15.2554 14.0785 14.9801 14.3519 14.7041C14.468 14.587 14.5845 14.4703 14.7014 14.3539C14.8641 14.1916 15.0249 14.0275 15.1856 13.8632C15.2341 13.8152 15.2827 13.7672 15.3327 13.7178C15.5936 13.4595 15.5936 13.4595 15.6578 13.1118C15.6273 13.0231 15.6273 13.0231 15.5962 12.9327C15.3431 12.1138 15.4507 11.263 15.8247 10.5005C16.1758 9.88535 16.6629 9.44367 17.3105 9.16123C17.3612 9.13773 17.412 9.11423 17.4643 9.09002C18.2111 8.78984 19.093 8.84925 19.8247 9.16123C20.5982 9.49784 21.1365 10.1262 21.4774 10.8809C21.7723 11.6757 21.7411 12.5481 21.4247 13.3327C21.0259 14.1812 20.3648 14.7023 19.5105 15.0434C19.1619 15.1492 18.8292 15.174 18.4676 15.1755C18.4221 15.1757 18.3767 15.176 18.3298 15.1762C18.0251 15.1732 17.764 15.1367 17.4788 15.0217C17.3386 14.9815 17.2761 14.9985 17.139 15.0469C17.0301 15.131 17.0301 15.131 16.9257 15.2404C16.8842 15.2818 16.8427 15.3232 16.8 15.3659C16.7326 15.4345 16.7326 15.4345 16.6638 15.5045C16.616 15.5525 16.5682 15.6004 16.519 15.6498C16.3881 15.7813 16.2576 15.9131 16.1273 16.0451C15.9909 16.183 15.8539 16.3204 15.717 16.4578C15.3987 16.7775 15.081 17.0979 14.7634 17.4183C14.3587 17.8264 13.9538 18.2342 13.5483 18.6414C13.412 18.7784 13.2758 18.9155 13.1399 19.0529C12.9886 19.2058 12.8369 19.3585 12.6852 19.511C12.6174 19.5798 12.6174 19.5798 12.5483 19.65C12.4865 19.7119 12.4865 19.7119 12.4235 19.775C12.3877 19.8112 12.3535 19.8384 12.3149 19.8846C12.0103 20.2495 12.3149 20.5041 12.364 21.1006C12.4024 21.5672 12.3354 21.9662 12.6516 22.3568C12.8488 22.5701 13.0576 22.7679 13.2712 22.9646C13.3611 23.0521 13.4508 23.1399 13.5402 23.228C13.7742 23.457 14.0118 23.6817 14.2504 23.9057C14.4941 24.1359 14.734 24.3699 14.9743 24.6035C15.4447 25.0599 15.9191 25.5119 16.3962 25.9612C16.6273 25.8684 16.7853 25.7048 16.9593 25.5327C16.9925 25.5003 17.0257 25.4678 17.0599 25.4344C17.1712 25.3256 17.2821 25.2163 17.393 25.107C17.4727 25.0289 17.5524 24.9508 17.6321 24.8727C18.3586 24.1603 19.0817 23.4442 19.804 22.7274C20.3379 22.1976 20.8733 21.6695 21.4109 21.1434C21.7889 20.7733 22.1649 20.4014 22.5397 20.0281C22.7635 19.8051 22.9882 19.5831 23.2148 19.363C23.4281 19.1559 23.6389 18.9467 23.8482 18.7355C23.9253 18.6585 24.0032 18.5823 24.082 18.5071C24.5223 18.1118 24.5223 18.1118 24.6881 17.5749C24.6474 17.3649 24.6474 17.3649 24.5752 17.1754C24.3465 16.5201 24.5506 15.7713 24.8247 15.1612C25.2114 14.4327 25.8276 13.9055 26.589 13.5934C27.3928 13.3513 28.3214 13.4398 29.0663 13.8101C29.8842 14.271 30.3343 14.904 30.6247 15.7898C30.832 16.5335 30.6965 17.3895 30.3414 18.0656C29.9662 18.7167 29.4317 19.1639 28.739 19.4469C28.673 19.4743 28.673 19.4743 28.6055 19.5023C28.2483 19.624 27.8916 19.6376 27.5176 19.6434C27.4691 19.6446 27.4205 19.6459 27.3705 19.6472C27.0667 19.6462 26.8094 19.595 26.5195 19.5023C26.4533 19.4814 26.3872 19.4604 26.3191 19.4388C26.2691 19.4226 26.2191 19.4065 26.1676 19.3898C25.0583 20.4978 23.9491 21.6059 22.8402 22.7143C22.3253 23.2288 21.8104 23.7434 21.2953 24.2578C20.8465 24.706 20.3979 25.1543 19.9493 25.6027C19.7117 25.8403 19.474 26.0778 19.2362 26.3152C19.0126 26.5384 18.7891 26.7618 18.5657 26.9852C18.4835 27.0674 18.4012 27.1496 18.3189 27.2317C18.207 27.3433 18.0952 27.4552 17.9834 27.5671C17.9505 27.5999 17.9175 27.6327 17.8835 27.6665C17.6388 27.9122 17.5891 28.0117 17.5883 28.3558C17.5878 28.4637 17.5878 28.4637 17.5873 28.5738C17.5873 28.654 17.5872 28.7342 17.5872 28.8144C17.5869 28.8985 17.5866 28.9826 17.5863 29.0667C17.5856 29.2481 17.5851 29.4295 17.5848 29.611C17.5842 29.8982 17.583 30.1855 17.5817 30.4727C17.5782 31.2897 17.5751 32.1066 17.5732 32.9236C17.5722 33.3746 17.5705 33.8255 17.5682 34.2765C17.567 34.515 17.5661 34.7535 17.566 34.992C17.5659 35.2168 17.565 35.4416 17.5635 35.6663C17.563 35.7484 17.5629 35.8306 17.5631 35.9127C17.5645 36.5831 17.5154 37.1782 17.0247 37.6755C16.6499 37.9805 16.2218 38.1095 15.7406 38.0926C15.2452 38.034 14.7914 37.7653 14.3676 37.5184C14.2837 37.4702 14.2837 37.4702 14.1982 37.4211C13.6268 37.0919 13.0601 36.7546 12.4935 36.4173C11.9668 36.1039 11.437 35.7959 10.9072 35.4877C10.7383 35.3894 10.5696 35.2909 10.4009 35.1923C9.81348 34.849 9.22518 34.5075 8.63546 34.1684C8.06022 33.8374 7.4886 33.5007 6.91841 33.1611C6.59213 32.9672 6.26504 32.7749 5.93568 32.5862C5.90254 32.5672 5.86939 32.5482 5.83524 32.5286C5.67815 32.4386 5.52088 32.3489 5.36336 32.2597C4.05191 31.5105 3.1066 30.6975 2.61671 29.2342C2.48436 28.7295 2.43659 28.2464 2.43842 27.7256C2.4382 27.6586 2.43798 27.5917 2.43775 27.5227C2.43727 27.3387 2.43729 27.1547 2.43753 26.9706C2.43768 26.7715 2.43716 26.5723 2.43673 26.3731C2.43601 25.9836 2.4359 25.5941 2.43604 25.2046C2.43614 24.8878 2.43604 24.5709 2.43579 24.2541C2.43576 24.2089 2.43573 24.1637 2.43569 24.1171C2.43562 24.0253 2.43555 23.9334 2.43548 23.8416C2.43486 22.9815 2.43498 22.1213 2.43533 21.2612C2.43563 20.4756 2.43499 19.69 2.4339 18.9045C2.43279 18.0964 2.43232 17.2883 2.43253 16.4802C2.43264 16.0271 2.4325 15.574 2.43169 15.121C2.43101 14.7352 2.43094 14.3495 2.43163 13.9637C2.43196 13.7672 2.43203 13.5707 2.43134 13.3742C2.42708 11.8599 2.42708 11.8598 2.62474 11.2184C2.63716 11.1763 2.64957 11.1343 2.66236 11.0909C3.18856 9.45485 4.52436 8.65678 5.93412 7.8706C6.27753 7.67881 6.61753 7.48153 6.95688 7.28266C7.44392 6.99746 7.93204 6.71426 8.42117 6.43266C8.82338 6.20102 9.22517 5.96881 9.62474 5.73266C10.0881 5.4588 10.5545 5.19033 11.0209 4.92172C11.4987 4.64641 11.9753 4.36903 12.4514 4.09072C12.8665 3.84822 13.2829 3.60803 13.6997 3.36837C14.2081 3.07593 14.7137 2.77911 15.2176 2.47909C19.2056 0.108588 19.2056 0.108588 20.9533 0.5148Z" fill="#8D3BD4"/>
</svg>
