<svg width="80" height="80" viewBox="0 0 80 80" fill="none" xmlns="http://www.w3.org/2000/svg">
<path d="M41.9066 1.02972C42.0176 1.05518 42.0176 1.05518 42.1309 1.08115C43.3408 1.38942 44.4287 1.95398 45.4923 2.59401C45.7334 2.7368 45.9744 2.87951 46.2156 3.02213C46.4004 3.13193 46.4004 3.13193 46.589 3.24395C47.2016 3.60598 47.8184 3.96063 48.4352 4.31544C48.6849 4.45933 48.9346 4.60322 49.1843 4.74713C49.3083 4.81857 49.4323 4.89 49.5601 4.9636C50.3042 5.39233 51.048 5.82166 51.7918 6.25087C52.4136 6.60965 53.0355 6.96827 53.6575 7.3266C54.9698 8.08274 56.2803 8.84188 57.5879 9.60609C58.4258 10.0954 59.2658 10.5811 60.1066 11.0654C61.1739 11.6802 62.2388 12.2989 63.3022 12.9203C64.1401 13.4097 64.9801 13.8953 65.8209 14.3797C66.1924 14.594 66.5639 14.8083 66.9353 15.0226C67.1843 15.1663 67.4333 15.3098 67.6824 15.4533C71.3024 17.5404 71.3024 17.5404 72.5638 18.7797C72.6352 18.8497 72.7067 18.9197 72.7803 18.9918C74.3644 20.6689 75.1151 23.0163 75.1086 25.282C75.1091 25.4158 75.1097 25.5497 75.1102 25.6875C75.1114 26.0565 75.1115 26.4255 75.1113 26.7945C75.1112 27.1935 75.1125 27.5924 75.1136 27.9914C75.1155 28.7723 75.1161 29.5532 75.1162 30.3341C75.1163 30.9695 75.1168 31.605 75.1175 32.2405C75.1195 34.0454 75.1206 35.8502 75.1204 37.6551C75.1204 37.8009 75.1204 37.8009 75.1204 37.9497C75.1204 38.047 75.1204 38.1443 75.1204 38.2446C75.1203 39.8195 75.1225 41.3944 75.1257 42.9693C75.129 44.5895 75.1306 46.2098 75.1304 47.8301C75.1303 48.7385 75.1309 49.6468 75.1334 50.5552C75.1355 51.3291 75.1359 52.1029 75.1344 52.8768C75.1337 53.2708 75.1336 53.6647 75.1356 54.0587C75.1525 58.1347 75.1525 58.1347 74.1852 59.8726C74.1455 59.9475 74.1057 60.0223 74.0648 60.0995C73.7367 60.702 73.3698 61.2434 72.9066 61.7512C72.8191 61.8504 72.7316 61.9497 72.6414 62.052C71.8072 62.946 70.8749 63.5434 69.8209 64.1512C69.7113 64.2148 69.6017 64.2785 69.4887 64.3441C68.8612 64.7083 68.2325 65.0705 67.603 65.4315C66.9249 65.821 66.2506 66.2165 65.578 66.6154C64.6118 67.1884 63.6428 67.7563 62.6721 68.3215C62.043 68.688 61.4144 69.0552 60.7865 69.4239C60.6839 69.4842 60.6839 69.4842 60.5791 69.5457C60.5102 69.5862 60.4413 69.6266 60.3703 69.6683C59.1637 70.3769 57.9552 71.082 56.7423 71.7797C55.7334 72.3602 54.7286 72.9472 53.7274 73.5408C52.6202 74.1969 51.5082 74.8446 50.396 75.4922C49.9372 75.7594 49.4785 76.027 49.0199 76.2946C48.7932 76.4269 48.5664 76.5591 48.3395 76.6912C47.743 77.0388 47.1473 77.3876 46.5526 77.7382C46.4289 77.8109 46.3053 77.8836 46.1778 77.9585C45.9416 78.0974 45.7056 78.2367 45.4698 78.3764C44.405 79.0014 43.4304 79.4955 42.1638 79.3512C41.3573 79.1277 40.6146 78.7896 40.1709 78.048C39.8599 77.4463 39.6363 76.9258 39.6334 76.243C39.6328 76.1482 39.6321 76.0533 39.6315 75.9557C39.6313 75.8526 39.6312 75.7495 39.6311 75.6433C39.6305 75.534 39.6299 75.4247 39.6293 75.312C39.6277 74.9501 39.6269 74.5881 39.6263 74.2262C39.6256 73.9739 39.625 73.7216 39.6243 73.4693C39.6231 72.9397 39.6224 72.4102 39.622 71.8806C39.6214 71.2048 39.6187 70.5291 39.6154 69.8533C39.6133 69.3316 39.6127 68.81 39.6125 68.2884C39.6122 68.0395 39.6112 67.7905 39.6097 67.5416C39.5977 65.4073 39.7073 63.876 41.2489 62.2955C41.6239 61.9174 42.0043 61.5448 42.3852 61.1726C42.6172 60.9446 42.8489 60.7164 43.0804 60.4879C43.2235 60.3466 43.3669 60.2058 43.5108 60.0654C43.8529 59.729 44.1786 59.3867 44.4906 59.0221C44.9507 58.4892 45.4572 58.0111 45.9678 57.527C46.1695 57.3323 46.3711 57.1374 46.5725 56.9422C46.8869 56.6377 47.2021 56.3344 47.5207 56.0343C47.8301 55.7422 48.1349 55.4459 48.4392 55.1485C48.5835 55.0154 48.5835 55.0154 48.7306 54.8796C49.2174 54.4156 49.2174 54.4156 49.3734 53.7902C49.3166 53.4968 49.2372 53.2317 49.1352 52.9512C48.7855 51.6604 48.9215 50.1532 49.4781 48.9512C49.5239 48.8461 49.5697 48.7411 49.6169 48.6328C50.3218 47.18 51.5922 46.0747 53.1138 45.544C54.9033 44.99 56.7572 45.1854 58.4066 46.0534C59.9724 46.9958 60.8941 48.3314 61.3638 50.094C61.7815 51.8896 61.2841 53.5956 60.3352 55.1226C59.3513 56.4997 58.0224 57.1942 56.4057 57.5891C55.2455 57.7744 54.1929 57.6814 53.0977 57.2686C52.7644 57.1716 52.6548 57.1806 52.3352 57.294C52.1499 57.429 52.1499 57.429 51.9816 57.6056C51.8814 57.7049 51.8814 57.7049 51.7791 57.8061C51.7072 57.8791 51.6353 57.9521 51.5612 58.0272C51.446 58.1421 51.446 58.1421 51.3285 58.2592C51.0747 58.5127 50.8221 58.7674 50.5696 59.0221C50.3938 59.1983 50.2179 59.3744 50.042 59.5504C49.6734 59.9195 49.3054 60.2891 48.9378 60.6592C48.4659 61.1344 47.993 61.6086 47.5197 62.0824C47.1566 62.4459 46.7938 62.8098 46.4312 63.1739C46.2568 63.3488 46.0824 63.5238 45.908 63.6987C45.6647 63.9427 45.4218 64.1871 45.1791 64.4317C45.1065 64.5044 45.0339 64.5772 44.9591 64.6521C44.4489 65.1674 44.3219 65.3673 44.3117 66.0847C44.3095 66.2265 44.3072 66.3684 44.3048 66.5145C44.3029 66.6699 44.301 66.8253 44.299 66.9806C44.2967 67.1392 44.2943 67.2977 44.2918 67.4562C44.2855 67.8737 44.2799 68.2912 44.2744 68.7087C44.2686 69.1346 44.2623 69.5605 44.256 69.9864C44.2437 70.8223 44.2321 71.6581 44.2209 72.494C46.5087 71.1547 46.5087 71.1547 48.7923 69.8083C49.8338 69.1918 50.8776 68.5795 51.922 67.9679C52.8227 67.4403 53.7226 66.9114 54.6209 66.3797C55.9276 65.6064 57.2376 64.8389 58.5478 64.0716C59.0467 63.7794 59.5454 63.487 60.0441 63.1945C62.4155 61.8035 62.4155 61.8035 63.5862 61.1219C63.8116 60.9904 64.0369 60.8588 64.2621 60.7269C64.8212 60.3995 65.3818 60.0758 65.9464 59.7579C66.0597 59.6931 66.173 59.6284 66.2897 59.5618C66.502 59.4405 66.7151 59.3207 66.9291 59.2026C67.8935 58.6474 68.6697 57.9111 69.0209 56.8369C69.11 56.4541 69.1497 56.1004 69.1505 55.7078C69.151 55.598 69.1516 55.4881 69.1521 55.375C69.1521 55.2552 69.152 55.1354 69.152 55.012C69.1526 54.8201 69.1526 54.8201 69.1533 54.6243C69.1545 54.1947 69.155 53.7651 69.1554 53.3355C69.1561 53.0278 69.1569 52.7201 69.1577 52.4124C69.16 51.4885 69.1611 50.5646 69.1621 49.6407C69.1626 49.2053 69.1632 48.7699 69.1638 48.3345C69.1658 46.8864 69.1674 45.4384 69.1683 43.9903C69.1685 43.6148 69.1687 43.2392 69.1689 42.8637C69.169 42.7703 69.169 42.677 69.1691 42.5808C69.17 41.0693 69.1729 39.5577 69.1767 38.0462C69.1804 36.4932 69.1825 34.9402 69.1829 33.3872C69.1831 32.5157 69.1841 31.6443 69.187 30.7728C69.1895 30.0305 69.1904 29.2882 69.1893 28.5459C69.1888 28.1675 69.1893 27.7892 69.1912 27.4108C69.1933 26.9996 69.1924 26.5885 69.1909 26.1773C69.1922 26.0591 69.1934 25.9409 69.1947 25.8191C69.1839 24.59 68.8251 23.5927 67.9647 22.7087C67.4273 22.2452 66.8341 21.9082 66.2166 21.5655C65.7689 21.3154 65.3257 21.0575 64.8818 20.8008C64.495 20.5771 64.1077 20.3543 63.7205 20.1315C63.0464 19.7427 62.3758 19.3484 61.7066 18.9512C60.6758 18.3394 59.6389 17.7386 58.6 17.1407C57.1954 16.332 55.7963 15.5142 54.397 14.6964C52.6086 13.6512 50.8159 12.6136 49.0209 11.5797C47.5427 10.7283 46.0653 9.87585 44.5923 9.01544C44.2618 8.82264 43.9313 8.62988 43.6007 8.43715C43.4149 8.32868 43.2293 8.22004 43.0438 8.11114C42.8222 7.98106 42.6002 7.85172 42.3781 7.72258C42.2623 7.65481 42.1465 7.58704 42.0272 7.51722C41.3853 7.18465 40.8107 7.07848 40.0923 7.07258C40.0143 7.06882 39.9362 7.06507 39.8557 7.0612C38.5598 7.04809 37.3989 7.8411 36.3209 8.47972C36.1255 8.59395 35.9302 8.70818 35.7348 8.82232C35.5338 8.93983 35.3331 9.05768 35.1324 9.17559C34.5069 9.54261 33.878 9.90365 33.2495 10.2654C33.0021 10.4081 32.7548 10.5508 32.5075 10.6936C32.0094 10.9809 31.5112 11.2681 31.0129 11.5552C29.8184 12.2434 28.6251 12.9336 27.4352 13.6297C26.3757 14.2494 25.3113 14.8601 24.2449 15.4677C23.3195 15.9951 22.3972 16.5272 21.4781 17.0654C20.4912 17.6433 19.5002 18.2135 18.5066 18.7797C17.2624 19.4889 16.0221 20.2044 14.7874 20.9302C14.3921 21.1622 13.9947 21.3894 13.5937 21.6114C12.2596 22.3557 11.2981 23.0774 10.8495 24.6083C10.7629 24.9883 10.7208 25.3393 10.7202 25.7288C10.7195 25.8906 10.7195 25.8906 10.7188 26.0558C10.7189 26.1734 10.719 26.291 10.7191 26.4122C10.7188 26.5379 10.7185 26.6636 10.7181 26.7931C10.7171 27.2151 10.717 27.6371 10.7168 28.059C10.7163 28.3613 10.7157 28.6635 10.7151 28.9658C10.7135 29.7875 10.7128 30.6092 10.7123 31.431C10.712 31.9443 10.7115 32.4577 10.711 32.9711C10.7096 34.3931 10.7084 35.8152 10.708 37.2373C10.708 37.3282 10.708 37.4192 10.708 37.513C10.7079 37.6041 10.7079 37.6953 10.7079 37.7893C10.7078 37.9741 10.7078 38.1589 10.7077 38.3436C10.7077 38.4811 10.7077 38.4811 10.7077 38.6214C10.7072 40.106 10.7052 41.5907 10.7026 43.0753C10.6998 44.6006 10.6984 46.1258 10.6983 47.651C10.6982 48.507 10.6975 49.3629 10.6955 50.2189C10.6937 50.9479 10.6931 51.6768 10.6941 52.4058C10.6945 52.7775 10.6942 53.1491 10.6928 53.5207C10.6913 53.9245 10.692 54.3281 10.6932 54.7318C10.6923 54.8482 10.6914 54.9645 10.6904 55.0844C10.6969 56.0257 10.8524 56.9415 11.3995 57.7297C11.4521 57.8082 11.5047 57.8868 11.5589 57.9677C12.1495 58.6613 12.9108 59.0694 13.6923 59.5154C13.9404 59.6586 14.1885 59.8017 14.4365 59.9449C14.5627 60.0174 14.6889 60.0899 14.8188 60.1647C15.39 60.4935 15.959 60.8259 16.5281 61.1583C16.6953 61.2558 16.6953 61.2558 16.8659 61.3554C17.8464 61.9273 18.8255 62.5014 19.8046 63.0757C21.1992 63.8936 22.5955 64.7086 23.9923 65.5226C25.4349 66.3632 26.877 67.2046 28.3178 68.0483C28.4665 68.1354 28.6153 68.2224 28.7641 68.3094C28.972 68.431 29.1797 68.5527 29.3874 68.6744C29.507 68.7444 29.6266 68.8144 29.7498 68.8865C29.9676 69.0165 30.1813 69.1533 30.3923 69.294C30.6387 67.1991 30.8015 65.1011 30.8923 62.994C30.8958 62.9165 30.8992 62.8391 30.9027 62.7592C31.0617 59.0338 31.0024 55.6751 28.3831 52.747C27.7723 52.091 27.1229 51.485 26.4495 50.894C26.3557 50.8116 26.2619 50.7292 26.1652 50.6443C25.1472 49.759 24.0974 48.9246 23.0008 48.1388C22.5234 47.7961 22.0774 47.4371 21.654 47.028C21.3355 46.7855 21.0323 46.8306 20.6495 46.8654C19.2163 46.9309 18.1071 46.5663 16.9955 45.6578C16.1415 44.8677 15.6009 43.8164 15.5062 42.6516C15.4644 41.4213 15.675 40.3021 16.4781 39.3364C17.2429 38.5186 18.1374 37.6778 19.3166 37.6194C20.9467 37.5195 21.9257 36.2394 23.0019 35.1394C23.2933 34.8427 23.5883 34.5496 23.8828 34.256C24.3759 33.7634 24.8661 33.2681 25.3547 32.7711C25.9191 32.1969 26.4876 31.6269 27.0583 31.059C27.609 30.5109 28.1571 29.9603 28.7039 29.4083C28.936 29.174 29.169 28.9406 29.4027 28.7079C29.7283 28.3834 30.0498 28.0552 30.3711 27.7265C30.4682 27.6305 30.5653 27.5345 30.6654 27.4357C31.1872 26.9191 31.1872 26.9191 31.3155 26.2237C31.2546 26.0463 31.2546 26.0463 31.1923 25.8654C30.6861 24.2276 30.9014 22.5261 31.6495 21.0012C32.3517 19.7708 33.3259 18.8875 34.6209 18.3226C34.7224 18.2756 34.8239 18.2286 34.9285 18.1802C36.4222 17.5798 38.1861 17.6986 39.6495 18.3226C41.1964 18.9958 42.2729 20.2526 42.9548 21.7619C43.5446 23.3515 43.4822 25.0964 42.8495 26.6654C42.0519 28.3625 40.7296 29.4047 39.0209 30.0869C38.3238 30.2985 37.6585 30.348 36.9352 30.3512C36.8443 30.3516 36.7534 30.3521 36.6597 30.3525C36.0501 30.3465 35.528 30.2736 34.9575 30.0436C34.6773 29.9631 34.5522 29.9971 34.2781 30.094C34.0602 30.262 34.0602 30.262 33.8515 30.4809C33.7685 30.5637 33.6855 30.6466 33.6 30.732C33.4651 30.8692 33.4651 30.8692 33.3276 31.0092C33.232 31.1051 33.1364 31.201 33.038 31.2998C32.7762 31.5627 32.5152 31.8263 32.2546 32.0903C31.9817 32.3661 31.7078 32.6409 31.434 32.9158C30.7973 33.5552 30.162 34.1958 29.5268 34.8366C28.7175 35.6529 27.9076 36.4685 27.0966 37.283C26.824 37.5569 26.5516 37.8311 26.2799 38.1059C25.9772 38.4118 25.6739 38.717 25.3704 39.0222C25.2349 39.1597 25.2349 39.1597 25.0966 39.3001C24.973 39.4239 24.973 39.4239 24.847 39.5502C24.7753 39.6226 24.7071 39.6769 24.6298 39.7694C24.0207 40.499 24.6298 41.0083 24.728 42.2013C24.8048 43.1344 24.6708 43.9324 25.3032 44.7137C25.6977 45.1403 26.1152 45.5359 26.5423 45.9293C26.7223 46.1043 26.9016 46.2799 27.0804 46.4561C27.5483 46.914 28.0235 47.3635 28.5008 47.8116C28.9882 48.2718 29.468 48.7398 29.9486 49.2072C30.8894 50.1199 31.8381 51.0239 32.7923 51.9226C33.2547 51.7369 33.5706 51.4098 33.9185 51.0655C33.985 51.0007 34.0514 50.9358 34.1198 50.869C34.3425 50.6513 34.5643 50.4327 34.7861 50.2142C34.9454 50.058 35.1048 49.9018 35.2642 49.7456C36.7173 48.3207 38.1634 46.8886 39.6079 45.455C40.6758 44.3954 41.7467 43.3391 42.8219 42.287C43.5778 41.5468 44.3299 40.8029 45.0793 40.0562C45.5271 39.6104 45.9763 39.1663 46.4297 38.7262C46.8562 38.312 47.2779 37.8934 47.6963 37.4711C47.8505 37.3171 48.0063 37.1647 48.1639 37.0142C49.0446 36.2238 49.0446 36.2238 49.3761 35.1499C49.2947 34.7299 49.2947 34.7299 49.1505 34.351C48.6931 33.0404 49.1012 31.5427 49.6495 30.3226C50.4229 28.8656 51.6552 27.8111 53.1781 27.1869C54.7856 26.7027 56.6429 26.8798 58.1325 27.6203C59.7684 28.5421 60.6686 29.8082 61.2495 31.5797C61.664 33.0671 61.393 34.779 60.6827 36.1312C59.9324 37.4335 58.8634 38.3278 57.4781 38.894C57.3459 38.9488 57.3459 38.9488 57.2111 39.0047C56.4966 39.2481 55.7832 39.2754 55.0352 39.2869C54.9381 39.2894 54.8411 39.292 54.7411 39.2946C54.1334 39.2925 53.6187 39.1901 53.0389 39.0048C52.9067 38.9628 52.7744 38.9209 52.6382 38.8777C52.5382 38.8454 52.4382 38.813 52.3352 38.7797C50.1166 40.9957 47.8983 43.212 45.6804 45.4286C44.6506 46.4578 43.6207 47.4869 42.5906 48.5157C41.6931 49.4121 40.7957 50.3087 39.8986 51.2055C39.4233 51.6807 38.948 52.1557 38.4723 52.6305C38.0251 53.0769 37.5782 53.5237 37.1314 53.9706C36.967 54.135 36.8025 54.2993 36.6378 54.4635C36.4139 54.6868 36.1903 54.9105 35.9668 55.1343C35.9009 55.1999 35.835 55.2655 35.7671 55.3331C35.2776 55.8245 35.1782 56.0235 35.1766 56.7118C35.1756 56.9276 35.1756 56.9276 35.1747 57.1478C35.1745 57.3081 35.1744 57.4685 35.1743 57.6288C35.1738 57.797 35.1732 57.9652 35.1726 58.1334C35.1713 58.4963 35.1703 58.8592 35.1696 59.2221C35.1683 59.7966 35.166 60.3711 35.1635 60.9455C35.1564 62.5795 35.1503 64.2134 35.1465 65.8473C35.1444 66.7492 35.1411 67.6511 35.1364 68.553C35.134 69.0301 35.1322 69.5071 35.132 69.9842C35.1317 70.4337 35.1299 70.8832 35.1269 71.3327C35.1261 71.497 35.1258 71.6613 35.1262 71.8256C35.1289 73.1663 35.0307 74.3566 34.0495 75.3512C33.2998 75.9611 32.4437 76.2192 31.4812 76.1853C30.4904 76.0681 29.5827 75.5307 28.7352 75.0369C28.5675 74.9406 28.5675 74.9406 28.3963 74.8424C27.2536 74.184 26.1202 73.5092 24.987 72.8346C23.9335 72.208 22.8739 71.5919 21.8144 70.9755C21.4766 70.7789 21.1391 70.5818 20.8017 70.3846C19.627 69.6982 18.4504 69.0152 17.2709 68.3369C16.1204 67.6749 14.9772 67.0015 13.8368 66.3224C13.1843 65.9345 12.5301 65.5499 11.8714 65.1726C11.8051 65.1346 11.7388 65.0966 11.6705 65.0574C11.3563 64.8774 11.0418 64.698 10.7267 64.5195C8.10381 63.0211 6.2132 61.395 5.23341 58.4686C4.96871 57.4591 4.87317 56.493 4.87683 55.4512C4.8764 55.3174 4.87596 55.1835 4.87551 55.0455C4.87454 54.6775 4.87458 54.3094 4.87507 53.9414C4.87535 53.5431 4.87432 53.1447 4.87347 52.7464C4.87202 51.9674 4.8718 51.1883 4.87207 50.4093C4.87228 49.7756 4.87207 49.142 4.87159 48.5083C4.87152 48.4179 4.87145 48.3275 4.87138 48.2344C4.87124 48.0507 4.87111 47.867 4.87097 47.6833C4.86973 45.963 4.86997 44.2427 4.87067 42.5224C4.87126 40.9513 4.86997 39.3802 4.8678 37.809C4.86558 36.1929 4.86464 34.5767 4.86507 32.9606C4.86529 32.0544 4.86501 31.1482 4.86339 30.242C4.86202 29.4705 4.86187 28.6991 4.86325 27.9276C4.86392 27.5346 4.86406 27.1416 4.86268 26.7486C4.85417 23.7198 4.85417 23.7198 5.24948 22.4369C5.27431 22.3527 5.29914 22.2686 5.32472 22.182C6.37713 18.9098 9.04873 17.3137 11.8682 15.7413C12.5551 15.3578 13.2351 14.9632 13.9138 14.5654C14.8878 13.995 15.8641 13.4286 16.8423 12.8654C17.6468 12.4022 18.4503 11.9377 19.2495 11.4654C20.1762 10.9177 21.1091 10.3808 22.0419 9.84356C22.9975 9.29294 23.9506 8.73819 24.9027 8.18156C25.733 7.69657 26.5659 7.21619 27.3995 6.73687C28.4162 6.15198 29.4273 5.55833 30.4352 4.95829C38.4112 0.217298 38.4112 0.217298 41.9066 1.02972Z" fill="#8D3BD4"/>
</svg>
